<?xml version="1.0" standalone="no"?>
<!DOCTYPE svg PUBLIC "-//W3C//DTD SVG 20010904//EN"
 "http://www.w3.org/TR/2001/REC-SVG-20010904/DTD/svg10.dtd">
<svg version="1.0" xmlns="http://www.w3.org/2000/svg"
 width="512.000000pt" height="512.000000pt" viewBox="0 0 512.000000 512.000000"
 preserveAspectRatio="xMidYMid meet">

<g transform="translate(0.000000,512.000000) scale(0.100000,-0.100000)"
fill="#000000" stroke="none">
<path d="M2316 4879 c-417 -48 -830 -220 -1176 -488 -107 -82 -297 -271 -380
-376 -151 -191 -306 -469 -380 -680 -95 -271 -150 -631 -133 -858 6 -71 10
-85 33 -109 49 -49 111 -49 156 -1 22 24 24 34 24 132 0 356 73 680 219 978
177 359 425 639 766 863 99 64 331 179 445 218 266 93 588 135 860 112 415
-34 802 -181 1130 -428 103 -78 287 -258 375 -367 89 -111 94 -115 144 -122
36 -5 44 -2 76 30 45 45 48 95 9 153 -85 125 -302 348 -454 466 -330 255 -724
420 -1133 473 -126 16 -458 19 -581 4z"/>
<path d="M2434 4246 c-329 -63 -585 -259 -720 -550 -63 -137 -79 -220 -78
-406 1 -193 16 -268 88 -415 170 -348 526 -560 911 -542 428 19 782 307 892
723 22 84 26 120 26 239 0 119 -4 155 -26 238 -92 347 -354 607 -705 698 -100
26 -292 33 -388 15z m371 -236 c251 -79 443 -277 511 -530 24 -89 24 -281 0
-370 -59 -218 -207 -395 -411 -491 -117 -54 -213 -73 -349 -66 -204 9 -344 72
-492 222 -78 78 -99 106 -137 186 -65 136 -80 209 -75 366 4 110 9 140 35 210
91 250 293 430 549 487 98 22 276 15 369 -14z"/>
<path d="M4520 3683 c-25 -13 -39 -29 -49 -59 -14 -41 -14 -41 43 -163 150
-318 215 -638 203 -990 -9 -259 -58 -492 -152 -723 -55 -135 -72 -168 -148
-295 l-61 -102 -108 105 c-386 369 -866 595 -1397 655 -138 15 -515 7 -641
-15 -496 -86 -945 -314 -1288 -655 l-90 -90 -37 56 c-57 86 -139 247 -185 365
-47 120 -70 147 -129 155 -36 5 -44 2 -76 -30 -45 -45 -46 -84 -5 -192 83
-215 234 -473 381 -650 379 -454 881 -737 1474 -832 155 -25 516 -24 674 0
510 80 956 303 1312 657 135 134 213 230 319 392 387 589 483 1333 260 2009
-52 158 -145 363 -177 392 -31 27 -82 31 -123 10z m-1620 -1799 c458 -65 874
-272 1209 -601 l114 -112 -64 -71 c-122 -137 -334 -306 -508 -405 -241 -136
-506 -225 -791 -266 -128 -18 -423 -16 -563 5 -364 53 -705 195 -999 417 -90
68 -328 297 -328 316 0 15 167 181 257 255 459 376 1077 547 1673 462z"/>
<path d="M304 2221 c-44 -27 -60 -77 -41 -124 20 -46 52 -67 104 -67 57 0 92
31 100 86 13 97 -80 156 -163 105z"/>
</g>
</svg>
