<svg id="Layer_1" data-name="Layer 1" xmlns="http://www.w3.org/2000/svg" viewBox="0 0 169.66 49.83"><defs><style>.cls-1{fill:#fff;}.cls-2,.cls-7{fill:#153c88;}.cls-2,.cls-3,.cls-4,.cls-6{fill-rule:evenodd;}.cls-3{fill:#ffcc4e;}.cls-4,.cls-5{fill:#de2737;}.cls-6{fill:#e3bb25;}</style></defs><path class="cls-1" d="M77.21,5.28H86.1v38.8H77.21V28.67H65V44.08H56.09V5.28H65V20.14H77.21Z"/><path class="cls-1" d="M109.89,16.37h8.34V44.08h-8.34v-2.6c-1.94,2.27-4.72,3.38-8.28,3.38a12.3,12.3,0,0,1-9.39-4.21,14.76,14.76,0,0,1-3.89-10.42,14.63,14.63,0,0,1,3.89-10.37,12.33,12.33,0,0,1,9.39-4.27c3.56,0,6.34,1.11,8.28,3.38ZM103.28,37a6.52,6.52,0,0,0,4.78-1.83,6.69,6.69,0,0,0,1.83-4.93,6.7,6.7,0,0,0-1.83-4.94,7.16,7.16,0,0,0-9.56,0,6.66,6.66,0,0,0-1.84,4.94,6.65,6.65,0,0,0,1.84,4.93A6.49,6.49,0,0,0,103.28,37Z"/><path class="cls-1" d="M121.56,5.28h8.89v25.5c0,3.6,2.06,5.43,6.12,5.43s6.11-1.83,6.11-5.43V5.28h8.9V31.56a12,12,0,0,1-4.23,9.7,17.94,17.94,0,0,1-21.56,0,12,12,0,0,1-4.23-9.7Z"/><path class="cls-1" d="M155.19,5.28h8.89v38.8h-8.89Z"/><path class="cls-2" d="M10.89,4.74H45.46a2.73,2.73,0,0,1,2.72,2.71V41.93a2.73,2.73,0,0,1-2.72,2.71H10.89a2.72,2.72,0,0,1-2.72-2.71V7.45a2.72,2.72,0,0,1,2.72-2.71"/><path class="cls-3" d="M11,5.31H45.34a2.26,2.26,0,0,1,2.27,2.25V41.81a2.27,2.27,0,0,1-2.27,2.26H11a2.27,2.27,0,0,1-2.26-2.26V7.56A2.26,2.26,0,0,1,11,5.31"/><path class="cls-4" d="M11.78,34.1H44.57v0l-.34,0c-13,1.36-24,3.64-32.45,7.32Z"/><path class="cls-5" d="M29.06,11.13a8.44,8.44,0,0,1,5.64,2.33l.58-.57a9.22,9.22,0,0,0-6.22-2.58Zm6.59,1.65-1,1.05A8.07,8.07,0,0,1,37,19.36h1.48A9.51,9.51,0,0,0,35.65,12.78Zm.92,6.77h2.3a10,10,0,0,1-2.8,6.92l-1.62-1.63A7.64,7.64,0,0,0,36.57,19.55ZM29.06,29.93a10.45,10.45,0,0,0,7.17-3L34,24.69a7.29,7.29,0,0,1-2.37,1.58,7.45,7.45,0,0,1-2.6.55Zm-.19-3.44v3.77a10.72,10.72,0,0,1-7.46-3l2.67-2.66A6.94,6.94,0,0,0,28.87,26.49ZM17.8,19.73A11,11,0,0,0,21,27.35h0l3.14-3.12a6.6,6.6,0,0,1-1.94-4.5Zm6.48-4.5a6.3,6.3,0,0,0-1.72,4.32H17.47a11.36,11.36,0,0,1,3.21-7.91Zm-3.76-4a11.8,11.8,0,0,1,8.35-3.45v5.9a5.9,5.9,0,0,0-4.17,1.72Z"/><polygon class="cls-6" points="25.07 11 25.4 10.05 25.7 11 26.72 11 25.91 11.58 26.23 12.56 25.4 11.95 24.58 12.55 24.9 11.59 24.11 11 25.07 11"/><path class="cls-2" d="M30,20.71a7,7,0,0,0,.71-.12,7.07,7.07,0,0,0-.26-.67l-.22.4-.23.39m-3.27-2.15c-.16.05-.32.09-.47.15-.62.23-1,.52-1,.83s.38.6,1,.83l.47.15a7.13,7.13,0,0,1,.39-1C27,19.2,26.83,18.87,26.72,18.56Zm1-.19c-.24,0-.48.07-.71.12.08.21.16.44.26.67.07-.13.14-.27.22-.4Zm1.82,0-.7,0-.7,0-.37.59c-.12.21-.23.42-.32.62q.15.32.33.63t.36.57c.23,0,.46,0,.7,0s.47,0,.7,0c.12-.18.25-.38.37-.59s.23-.41.33-.61q-.15-.3-.33-.6C29.82,18.73,29.7,18.52,29.57,18.33Zm1.13.16a7.2,7.2,0,0,0-.72-.12c.09.13.17.27.25.4l.21.39C30.54,18.93,30.63,18.7,30.7,18.49Zm.79.22c-.15-.06-.3-.1-.47-.15a8.3,8.3,0,0,1-.39,1,7.13,7.13,0,0,1,.39,1l.47-.15c.62-.23,1-.52,1-.83S32.11,18.94,31.49,18.71ZM27,18.17A7.88,7.88,0,0,1,28,18a8.09,8.09,0,0,1,.65-.82c-.12-.12-.23-.23-.35-.33-.51-.42-.95-.6-1.22-.44s-.34.63-.22,1.28C26.87,17.85,26.91,18,27,18.17Zm2.38,2.92h-.92c.15.2.31.39.46.56C29,21.48,29.17,21.29,29.33,21.09Zm1.47-.18c-.33.06-.68.12-1.05.15a9.63,9.63,0,0,1-.66.83c.13.12.25.24.37.34.51.42,1,.6,1.23.45s.33-.64.22-1.28C30.88,21.24,30.84,21.08,30.8,20.91Zm.31-2.66a4.77,4.77,0,0,1,.49.15c.75.28,1.22.68,1.22,1.14s-.47.86-1.22,1.14l-.48.15c0,.18.08.35.11.51.14.79,0,1.39-.38,1.62s-1,0-1.6-.48l-.38-.36a4,4,0,0,1-.38.35c-.61.51-1.19.71-1.59.48s-.52-.83-.38-1.62a3.22,3.22,0,0,1,.11-.5l-.49-.15c-.75-.28-1.22-.68-1.22-1.14s.47-.86,1.22-1.14c.15,0,.32-.11.49-.15,0-.17-.08-.33-.11-.49-.13-.79,0-1.39.38-1.62s1,0,1.6.48c.12.1.24.22.37.34a4,4,0,0,1,.38-.35c.61-.51,1.19-.71,1.59-.48s.52.83.38,1.62A3.22,3.22,0,0,1,31.11,18.25ZM29.75,18a7.88,7.88,0,0,1,1,.15,4.15,4.15,0,0,0,.11-.48c.11-.64.05-1.12-.22-1.28s-.72,0-1.22.45c-.12.1-.24.21-.37.34A9.81,9.81,0,0,1,29.75,18Zm-.88,0h.45c-.15-.2-.3-.38-.45-.55a6.3,6.3,0,0,0-.45.55ZM27,20.91a4.52,4.52,0,0,0-.11.47c-.11.65-.05,1.13.22,1.28s.72,0,1.22-.44q.18-.15.36-.33a9.57,9.57,0,0,1-.65-.83A10,10,0,0,1,27,20.91Zm.58-.58-.23-.41a7.07,7.07,0,0,0-.26.67c.23.05.46.09.71.12Z"/><path class="cls-4" d="M26.25,17.46a.42.42,0,1,1,.58.16.44.44,0,0,1-.58-.16m5.74.88a.4.4,0,1,1-.4.4A.4.4,0,0,1,32,18.34Zm-3.64,4.5a.4.4,0,1,1-.15-.54A.39.39,0,0,1,28.35,22.84Z"/><path class="cls-7" d="M12.42,31.53v.74h.33v-.74h.44v1.91h-.44v-.76h-.33v.76H12V31.53Z"/><path class="cls-7" d="M13.85,33.06l-.07.38h-.43l.41-1.91h.53l.35,1.91h-.42l-.06-.38Zm.27-.34,0-.36c0-.11,0-.31-.05-.43h0c0,.12,0,.33-.06.43l-.06.36Z"/><path class="cls-7" d="M14.84,33.44V31.53h.4l.27.68.19.51h0c0-.15,0-.52,0-.88v-.31H16v1.91h-.4l-.26-.64c-.06-.15-.14-.41-.18-.55h0c0,.17,0,.48,0,.86v.33Z"/><path class="cls-7" d="M17.55,32.44c0,.72-.26,1-.65,1s-.63-.51-.63-1,.2-1,.66-1S17.55,32.08,17.55,32.44Zm-.83,0c0,.45.09.6.2.6s.17-.23.17-.62,0-.58-.18-.58S16.72,32.06,16.72,32.48Z"/><path class="cls-7" d="M18.21,31.53v1.91h-.44V31.53Z"/><path class="cls-7" d="M19.42,31.53v1.22c0,.26.07.33.14.33s.15-.06.15-.33V31.53h.44v1.14c0,.49-.18.79-.58.79s-.59-.31-.59-.79V31.53Z"/><path class="cls-7" d="M20.46,33.44V31.53h.4l.27.68.19.51h0c0-.15,0-.52,0-.88v-.31h.39v1.91h-.41L21,32.8c-.06-.15-.15-.41-.19-.55h0c0,.17,0,.48,0,.86v.33Z"/><path class="cls-7" d="M22.43,31.53v1.91H22V31.53Z"/><path class="cls-7" d="M23,33.44l-.42-1.91h.48l.12.79c0,.2.06.42.08.63h0c0-.22,0-.43.07-.64l.11-.78h.48l-.43,1.91Z"/><path class="cls-7" d="M24.93,32.63h-.42v.43H25v.38h-.91V31.53H25v.38h-.44v.35h.42Z"/><path class="cls-7" d="M25.24,31.55a3.09,3.09,0,0,1,.45,0,.78.78,0,0,1,.54.14.48.48,0,0,1,.16.41.5.5,0,0,1-.29.47h0c.13.05.19.17.22.36a3.39,3.39,0,0,0,.13.53H26A2.25,2.25,0,0,1,25.9,33c0-.23-.08-.28-.18-.28h0v.73h-.44Zm.44.82h.06c.14,0,.21-.12.21-.26s-.06-.25-.19-.25h-.08Z"/><path class="cls-7" d="M26.61,33a.7.7,0,0,0,.33.08c.17,0,.24-.08.24-.17s-.08-.18-.25-.28a.6.6,0,0,1-.36-.53.58.58,0,0,1,.65-.59.59.59,0,0,1,.31.07l-.06.37a.51.51,0,0,0-.25-.06c-.15,0-.22.08-.22.16s0,.14.26.26a.62.62,0,0,1,.35.55.6.6,0,0,1-.67.6.88.88,0,0,1-.39-.08Z"/><path class="cls-7" d="M28.25,31.53v1.91h-.44V31.53Z"/><path class="cls-7" d="M28.77,31.93h-.33v-.4h1.11v.4h-.34v1.51h-.44Z"/><path class="cls-7" d="M30,33.44v-.7l-.42-1.21h.47l.11.44a4,4,0,0,1,.08.4h0a2.93,2.93,0,0,1,.07-.41l.09-.43h.45l-.42,1.19v.72Z"/><path class="cls-7" d="M32.64,32.44c0,.72-.26,1-.65,1s-.63-.51-.63-1,.2-1,.66-1S32.64,32.08,32.64,32.44Zm-.83,0c0,.45.09.6.2.6s.17-.23.17-.62,0-.58-.18-.58S31.81,32.06,31.81,32.48Z"/><path class="cls-7" d="M32.86,31.53h.88v.38H33.3v.41h.42v.36H33.3v.76h-.44Z"/><path class="cls-7" d="M34.93,31.53v1.91h-.44V31.53Z"/><path class="cls-7" d="M35.25,33.44V31.53h.4l.27.68.19.51h0c0-.15,0-.52,0-.88v-.31h.39v1.91h-.41l-.25-.64c-.06-.15-.15-.41-.19-.55h0c0,.17,0,.48,0,.86v.33Z"/><path class="cls-7" d="M36.78,31.55a2.22,2.22,0,0,1,.41,0,.8.8,0,0,1,.57.18,1,1,0,0,1,.24.77,1,1,0,0,1-.28.81.86.86,0,0,1-.61.18,2.34,2.34,0,0,1-.33,0Zm.44,1.54h.05c.16,0,.28-.18.28-.65s-.08-.58-.27-.58h-.06Z"/><path class="cls-7" d="M38.65,31.53v1.22c0,.26.07.33.15.33S39,33,39,32.75V31.53h.44v1.14c0,.49-.18.79-.59.79s-.59-.31-.59-.79V31.53Z"/><path class="cls-7" d="M39.66,33a.7.7,0,0,0,.33.08c.16,0,.24-.08.24-.17s-.08-.18-.25-.28a.6.6,0,0,1-.36-.53.57.57,0,0,1,.65-.59.62.62,0,0,1,.31.07l-.06.37a.54.54,0,0,0-.25-.06c-.15,0-.22.08-.22.16s0,.14.26.26a.62.62,0,0,1,.35.55.6.6,0,0,1-.67.6.88.88,0,0,1-.39-.08Z"/><path class="cls-7" d="M41.06,31.93h-.33v-.4h1.1v.4H41.5v1.51h-.44Z"/><path class="cls-7" d="M42,31.55a3.09,3.09,0,0,1,.45,0,.78.78,0,0,1,.54.14.48.48,0,0,1,.16.41.5.5,0,0,1-.29.47h0c.13.05.19.17.22.36a5.12,5.12,0,0,0,.13.53h-.46a2.25,2.25,0,0,1-.09-.45c0-.23-.08-.28-.18-.28h0v.73H42Zm.44.82h.06c.14,0,.21-.12.21-.26s0-.25-.19-.25h-.08Z"/><path class="cls-7" d="M43.63,33.44v-.7l-.42-1.21h.47l.11.44a4,4,0,0,1,.09.4h0c0-.14,0-.27.07-.41l.09-.43h.46l-.43,1.19v.72Z"/></svg>